<svg width="308" height="60" viewBox="0 0 308 60" fill="none" xmlns="http://www.w3.org/2000/svg">
<g clip-path="url(#clip0_427_262)">
<path d="M94.6 26.72V25H96.34V35H94.6V33.28C93.7467 34.6 92.4867 35.26 90.82 35.26C89.4067 35.26 88.2133 34.7533 87.24 33.74C86.2533 32.7133 85.76 31.4667 85.76 30C85.76 28.5467 86.2533 27.3067 87.24 26.28C88.2267 25.2533 89.42 24.74 90.82 24.74C92.4867 24.74 93.7467 25.4 94.6 26.72ZM91.04 33.58C92.0533 33.58 92.9 33.24 93.58 32.56C94.26 31.8533 94.6 31 94.6 30C94.6 28.9867 94.26 28.14 93.58 27.46C92.9 26.7667 92.0533 26.42 91.04 26.42C90.04 26.42 89.2 26.7667 88.52 27.46C87.84 28.14 87.5 28.9867 87.5 30C87.5 31 87.84 31.8533 88.52 32.56C89.2 33.24 90.04 33.58 91.04 33.58ZM103.676 35.26C102.17 35.26 100.916 34.76 99.9163 33.76C98.9163 32.7467 98.4163 31.4933 98.4163 30C98.4163 28.5067 98.9163 27.26 99.9163 26.26C100.916 25.2467 102.17 24.74 103.676 24.74C104.663 24.74 105.55 24.98 106.336 25.46C107.123 25.9267 107.71 26.56 108.096 27.36L106.636 28.2C106.383 27.6667 105.99 27.24 105.456 26.92C104.936 26.6 104.343 26.44 103.676 26.44C102.676 26.44 101.836 26.78 101.156 27.46C100.49 28.1533 100.156 29 100.156 30C100.156 30.9867 100.49 31.8267 101.156 32.52C101.836 33.2 102.676 33.54 103.676 33.54C104.343 33.54 104.943 33.3867 105.476 33.08C106.01 32.76 106.416 32.3333 106.696 31.8L108.176 32.66C107.736 33.46 107.116 34.0933 106.316 34.56C105.516 35.0267 104.636 35.26 103.676 35.26ZM108.618 25H117.178V26.68H113.778V35H112.038V26.68H108.618V25ZM124.223 24.74C125.623 24.74 126.816 25.2533 127.803 26.28C128.789 27.3067 129.283 28.5467 129.283 30C129.283 31.4667 128.789 32.7133 127.803 33.74C126.829 34.7533 125.636 35.26 124.223 35.26C122.569 35.26 121.309 34.6 120.443 33.28V39H118.703V25H120.443V26.72C121.309 25.4 122.569 24.74 124.223 24.74ZM124.003 33.58C125.003 33.58 125.843 33.24 126.523 32.56C127.203 31.8533 127.543 31 127.543 30C127.543 28.9867 127.203 28.14 126.523 27.46C125.843 26.7667 125.003 26.42 124.003 26.42C122.989 26.42 122.143 26.7667 121.463 27.46C120.783 28.14 120.443 28.9867 120.443 30C120.443 31 120.783 31.8533 121.463 32.56C122.143 33.24 122.989 33.58 124.003 33.58ZM139.639 26.72V25H141.379V35H139.639V33.28C138.786 34.6 137.526 35.26 135.859 35.26C134.446 35.26 133.252 34.7533 132.279 33.74C131.292 32.7133 130.799 31.4667 130.799 30C130.799 28.5467 131.292 27.3067 132.279 26.28C133.266 25.2533 134.459 24.74 135.859 24.74C137.526 24.74 138.786 25.4 139.639 26.72ZM136.079 33.58C137.092 33.58 137.939 33.24 138.619 32.56C139.299 31.8533 139.639 31 139.639 30C139.639 28.9867 139.299 28.14 138.619 27.46C137.939 26.7667 137.092 26.42 136.079 26.42C135.079 26.42 134.239 26.7667 133.559 27.46C132.879 28.14 132.539 28.9867 132.539 30C132.539 31 132.879 31.8533 133.559 32.56C134.239 33.24 135.079 33.58 136.079 33.58ZM148.875 29.84L152.695 35H150.655L147.855 31.22L145.035 35H142.995L146.835 29.86L143.215 25H145.275L147.855 28.48L150.435 25H152.475L148.875 29.84ZM161.885 26.72V25H163.625V35H161.885V33.28C161.032 34.6 159.772 35.26 158.105 35.26C156.692 35.26 155.498 34.7533 154.525 33.74C153.538 32.7133 153.045 31.4667 153.045 30C153.045 28.5467 153.538 27.3067 154.525 26.28C155.512 25.2533 156.705 24.74 158.105 24.74C159.772 24.74 161.032 25.4 161.885 26.72ZM158.325 33.58C159.338 33.58 160.185 33.24 160.865 32.56C161.545 31.8533 161.885 31 161.885 30C161.885 28.9867 161.545 28.14 160.865 27.46C160.185 26.7667 159.338 26.42 158.325 26.42C157.325 26.42 156.485 26.7667 155.805 27.46C155.125 28.14 154.785 28.9867 154.785 30C154.785 31 155.125 31.8533 155.805 32.56C156.485 33.24 157.325 33.58 158.325 33.58ZM173.181 29.16V25H174.921V35H173.181V30.82H168.001V35H166.261V25H168.001V29.16H173.181ZM182.27 35.26C180.763 35.26 179.51 34.76 178.51 33.76C177.51 32.7467 177.01 31.4933 177.01 30C177.01 28.5067 177.51 27.26 178.51 26.26C179.51 25.2467 180.763 24.74 182.27 24.74C183.257 24.74 184.143 24.98 184.93 25.46C185.717 25.9267 186.303 26.56 186.69 27.36L185.23 28.2C184.977 27.6667 184.583 27.24 184.05 26.92C183.53 26.6 182.937 26.44 182.27 26.44C181.27 26.44 180.43 26.78 179.75 27.46C179.083 28.1533 178.75 29 178.75 30C178.75 30.9867 179.083 31.8267 179.75 32.52C180.43 33.2 181.27 33.54 182.27 33.54C182.937 33.54 183.537 33.3867 184.07 33.08C184.603 32.76 185.01 32.3333 185.29 31.8L186.77 32.66C186.33 33.46 185.71 34.0933 184.91 34.56C184.11 35.0267 183.23 35.26 182.27 35.26ZM192.028 29.84L196.968 35H194.808L190.248 30.26V35H188.507V25H190.248V29.42L194.568 25H196.808L192.028 29.84ZM200.306 32.02L205.846 25H207.246V35H205.526V27.98L199.986 35H198.586V25H200.306V32.02ZM219.494 30.8H211.114C211.288 31.68 211.694 32.3733 212.334 32.88C212.974 33.3733 213.774 33.62 214.734 33.62C216.054 33.62 217.014 33.1333 217.614 32.16L219.094 33C218.108 34.5067 216.641 35.26 214.694 35.26C213.121 35.26 211.828 34.7667 210.814 33.78C209.828 32.7667 209.334 31.5067 209.334 30C209.334 28.48 209.821 27.2267 210.794 26.24C211.768 25.24 213.028 24.74 214.574 24.74C216.041 24.74 217.234 25.26 218.154 26.3C219.088 27.3133 219.554 28.5533 219.554 30.02C219.554 30.2733 219.534 30.5333 219.494 30.8ZM214.574 26.38C213.654 26.38 212.881 26.64 212.254 27.16C211.641 27.68 211.261 28.3867 211.114 29.28H217.794C217.648 28.36 217.281 27.6467 216.694 27.14C216.108 26.6333 215.401 26.38 214.574 26.38ZM229.034 29.7H221.734V28.02H229.034V29.7ZM236.387 35.26C234.907 35.26 233.687 34.7733 232.727 33.8C231.767 32.8133 231.287 31.56 231.287 30.04C231.287 28.32 231.534 27.0067 232.027 26.1C232.534 25.18 233.561 24.3467 235.107 23.6C235.187 23.56 235.281 23.5133 235.387 23.46C235.507 23.4067 235.647 23.3467 235.807 23.28C235.981 23.2 236.127 23.1333 236.247 23.08L237.327 22.6C238.394 22.0667 238.961 21.4267 239.027 20.68L240.427 21.48C240.334 21.9467 240.181 22.32 239.967 22.6C239.954 22.6267 239.914 22.6867 239.847 22.78C239.781 22.86 239.734 22.92 239.707 22.96C239.681 22.9867 239.634 23.0333 239.567 23.1C239.514 23.1533 239.454 23.2067 239.387 23.26C239.334 23.3133 239.261 23.3667 239.167 23.42C238.674 23.7267 238.321 23.9267 238.107 24.02C238.027 24.06 237.941 24.1 237.847 24.14C237.767 24.18 237.701 24.2133 237.647 24.24C237.594 24.2667 237.554 24.2867 237.527 24.3L236.867 24.58L236.227 24.84C235.334 25.2267 234.674 25.62 234.247 26.02C233.821 26.42 233.514 26.9267 233.327 27.54C233.741 27.0333 234.261 26.6467 234.887 26.38C235.527 26.1133 236.181 25.98 236.847 25.98C238.114 25.98 239.174 26.4067 240.027 27.26C240.907 28.1267 241.347 29.2267 241.347 30.56C241.347 31.92 240.881 33.0467 239.947 33.94C239.001 34.82 237.814 35.26 236.387 35.26ZM239.607 30.56C239.607 29.6667 239.314 28.94 238.727 28.38C238.154 27.8067 237.394 27.52 236.447 27.52C235.607 27.52 234.834 27.7933 234.127 28.34C233.447 28.8867 233.107 29.5933 233.107 30.46C233.107 31.3667 233.421 32.1133 234.047 32.7C234.674 33.2867 235.454 33.58 236.387 33.58C237.334 33.58 238.101 33.2933 238.687 32.72C239.301 32.1467 239.607 31.4267 239.607 30.56ZM251.475 26.72V25H253.215V35H251.475V33.28C250.622 34.6 249.362 35.26 247.695 35.26C246.282 35.26 245.088 34.7533 244.115 33.74C243.128 32.7133 242.635 31.4667 242.635 30C242.635 28.5467 243.128 27.3067 244.115 26.28C245.102 25.2533 246.295 24.74 247.695 24.74C249.362 24.74 250.622 25.4 251.475 26.72ZM247.915 33.58C248.928 33.58 249.775 33.24 250.455 32.56C251.135 31.8533 251.475 31 251.475 30C251.475 28.9867 251.135 28.14 250.455 27.46C249.775 26.7667 248.928 26.42 247.915 26.42C246.915 26.42 246.075 26.7667 245.395 27.46C244.715 28.14 244.375 28.9867 244.375 30C244.375 31 244.715 31.8533 245.395 32.56C246.075 33.24 246.915 33.58 247.915 33.58ZM261.251 29.88C262.358 30.3467 262.911 31.14 262.911 32.26C262.911 33.1267 262.571 33.8467 261.891 34.42C261.211 34.98 260.271 35.26 259.071 35.26C257.071 35.26 255.731 34.46 255.051 32.86L256.511 32C256.885 33.0933 257.745 33.64 259.091 33.64C259.745 33.64 260.258 33.5 260.631 33.22C261.005 32.94 261.191 32.5667 261.191 32.1C261.191 31.7 261.038 31.3733 260.731 31.12C260.438 30.8667 260.038 30.74 259.531 30.74H258.071V29.16H259.151C259.658 29.16 260.051 29.04 260.331 28.8C260.611 28.5467 260.751 28.2067 260.751 27.78C260.751 27.34 260.585 26.9933 260.251 26.74C259.918 26.4733 259.471 26.34 258.911 26.34C257.791 26.34 257.031 26.8133 256.631 27.76L255.211 26.94C255.918 25.4733 257.151 24.74 258.911 24.74C259.978 24.74 260.831 25.02 261.471 25.58C262.125 26.1267 262.451 26.8133 262.451 27.64C262.451 28.6533 262.051 29.4 261.251 29.88ZM266.537 28.6H269.017C270.017 28.6 270.843 28.9 271.497 29.5C272.163 30.0867 272.497 30.8533 272.497 31.8C272.497 32.7467 272.163 33.52 271.497 34.12C270.83 34.7067 270.003 35 269.017 35H264.797V25H266.537V28.6ZM273.797 35V25H275.537V35H273.797ZM266.537 33.38H269.017C269.523 33.38 269.943 33.2333 270.277 32.94C270.61 32.6467 270.777 32.2667 270.777 31.8C270.777 31.3333 270.603 30.9533 270.257 30.66C269.923 30.3533 269.51 30.2 269.017 30.2H266.537V33.38ZM279.295 35.22C278.935 35.22 278.628 35.0933 278.375 34.84C278.122 34.5867 277.995 34.28 277.995 33.92C277.995 33.56 278.122 33.2533 278.375 33C278.628 32.7467 278.935 32.62 279.295 32.62C279.668 32.62 279.975 32.7467 280.215 33C280.468 33.2533 280.595 33.56 280.595 33.92C280.595 34.28 280.468 34.5867 280.215 34.84C279.975 35.0933 279.668 35.22 279.295 35.22ZM288.578 24.74C289.978 24.74 291.172 25.2533 292.158 26.28C293.145 27.3067 293.638 28.5467 293.638 30C293.638 31.4667 293.145 32.7133 292.158 33.74C291.185 34.7533 289.992 35.26 288.578 35.26C286.925 35.26 285.665 34.6 284.798 33.28V39H283.058V25H284.798V26.72C285.665 25.4 286.925 24.74 288.578 24.74ZM288.358 33.58C289.358 33.58 290.198 33.24 290.878 32.56C291.558 31.8533 291.898 31 291.898 30C291.898 28.9867 291.558 28.14 290.878 27.46C290.198 26.7667 289.358 26.42 288.358 26.42C287.345 26.42 286.498 26.7667 285.818 27.46C285.138 28.14 284.798 28.9867 284.798 30C284.798 31 285.138 31.8533 285.818 32.56C286.498 33.24 287.345 33.58 288.358 33.58ZM302.015 35.2V39H300.295V35.2C298.735 35.0267 297.488 34.46 296.555 33.5C295.621 32.5533 295.155 31.3867 295.155 30C295.155 28.6133 295.621 27.4467 296.555 26.5C297.488 25.54 298.735 24.9733 300.295 24.8V21H302.015V24.8C303.575 24.9733 304.821 25.54 305.755 26.5C306.688 27.4467 307.155 28.6133 307.155 30C307.155 31.3867 306.688 32.5533 305.755 33.5C304.821 34.46 303.575 35.0267 302.015 35.2ZM296.875 30C296.875 30.9333 297.175 31.72 297.775 32.36C298.388 32.9867 299.228 33.3733 300.295 33.52V26.48C299.241 26.6133 298.408 27 297.795 27.64C297.181 28.2667 296.875 29.0533 296.875 30ZM302.015 26.48V33.52C303.068 33.3733 303.895 32.9867 304.495 32.36C305.108 31.72 305.415 30.9333 305.415 30C305.415 29.0667 305.108 28.2867 304.495 27.66C303.895 27.02 303.068 26.6267 302.015 26.48Z" fill="#4B4B4B"/>
<g clip-path="url(#clip1_427_262)">
<path d="M58.9302 0.0256557C47.2922 2.3196 36.9989 7.0139 28.3361 13.9787C21.7275 19.2918 16.0799 25.9026 11.5398 33.6357C10.0609 33.2334 8.37281 33.9715 7.67238 35.3443C7.03676 36.5385 6.42082 37.7666 5.84168 38.9948C5.63426 39.4346 5.82269 39.9594 6.26262 40.1667C6.70242 40.374 7.2273 40.1857 7.43461 39.7458C8.00168 38.5432 8.60473 37.3407 9.22699 36.1717C9.63012 35.375 10.6936 35.0498 11.4729 35.486C12.2812 35.9166 12.5887 36.9248 12.1583 37.7337C6.6477 48.0875 5.07305 56.7755 5.05781 56.8619C4.90781 57.7594 4.02703 58.3757 3.13535 58.2109C2.23441 58.0529 1.62914 57.1914 1.78617 56.2903C1.82637 56.0593 2.80734 50.5452 6.01348 42.9319C6.20226 42.4836 5.99191 41.9674 5.54367 41.7786C5.09531 41.5898 4.57898 41.8003 4.39031 42.2484C1.10742 50.0441 0.0926943 55.7494 0.0510927 55.9882C-0.272462 57.8447 0.974647 59.6198 2.83078 59.9454C4.66781 60.2836 6.48398 59.0144 6.79219 57.1686C6.80414 57.1019 7.77938 51.787 10.8376 44.5891C11.6202 46.1429 13.2294 47.2117 15.0843 47.2117C15.5944 47.2117 16.0856 47.1299 16.5466 46.9805L17.3694 48.4897C17.2002 48.7622 17.1008 49.0823 17.1008 49.426C17.1008 50.4087 17.9002 51.2081 18.8828 51.2081C19.8653 51.2081 20.6647 50.4087 20.6647 49.426C20.6647 48.4543 19.8827 47.6631 18.9151 47.6456L18.092 46.1357C19.1564 45.2632 19.8369 43.9387 19.8369 42.4581C19.8369 39.8369 17.7049 37.7044 15.0843 37.7044C14.7111 37.7044 14.3482 37.7483 13.9997 37.83C14.3167 36.6346 13.9557 35.3552 13.0753 34.4988C17.5039 26.9627 23.0065 20.5234 29.4397 15.3511C36.8774 9.37148 45.5568 5.10925 55.2861 2.64948C53.382 4.12698 50.9047 6.14003 48.5235 8.34527C45.6679 10.99 43.499 13.397 42.0771 15.4997C40.175 18.3125 39.5732 20.6672 40.288 22.4982C41.571 25.7845 45.206 25.5016 48.1268 25.2746C50.8546 25.0624 52.547 25.0233 53.0448 26.2666C53.7073 27.9206 50.9027 31.2616 49.175 32.9058C47.2416 32.5555 39.7978 31.5787 33.6764 35.8687C33.2017 36.2014 32.7554 36.5721 32.3384 36.9751C30.7859 36.7441 28.7905 36.7069 27.2875 37.5846C26.3713 38.1196 25.8217 39.1963 25.7396 40.6162C25.6253 42.5974 26.4585 45.3061 28.5532 47.0808C28.7011 50.1995 29.8652 53.1441 31.8345 55.2369C32.1682 55.5916 32.7257 55.6076 33.0792 55.2749C33.4335 54.9417 33.4505 54.3845 33.1172 54.0302C31.0463 51.8292 30.0169 48.4975 30.3639 45.1178C30.6996 41.8466 32.2754 39.001 34.6872 37.3108C35.6326 36.6482 36.6209 36.1268 37.6177 35.7173C37.8602 39.2886 39.3676 42.0457 42.0359 43.8051C41.468 44.1305 40.884 44.4425 40.2909 44.7587C39.8959 44.9694 39.4874 45.1871 39.0882 45.4074C39.0555 45.4255 39.0233 45.4435 38.9902 45.4624C37.0662 46.5606 36.1848 48.725 36.797 50.8485C37.414 52.9885 39.326 54.3614 41.5587 54.2675C42.4015 54.2317 43.194 54.0674 43.9141 53.7792C44.1495 53.6851 44.334 53.4908 44.4185 53.2519C44.4582 53.1397 45.2726 50.9142 47.548 50.0214C47.2035 51.1427 46.9068 52.7088 47.2076 54.2894C47.4784 55.7119 48.688 57.1769 49.6015 58.1123C48.5094 58.373 46.7709 58.3592 45.0274 56.5793C44.7776 56.3242 44.3953 56.2465 44.0644 56.3807C44.044 56.3889 41.9924 57.2003 38.8112 56.8213C37.6902 56.6878 36.6427 56.3876 35.6977 55.9292C35.2602 55.7171 34.7332 55.8997 34.521 56.3372C34.3088 56.7746 34.4913 57.3014 34.9289 57.5137C36.0506 58.0578 37.2867 58.4132 38.6029 58.57C41.2754 58.8885 43.2559 58.4671 44.1727 58.1988C45.6728 59.5493 47.24 59.9965 48.595 59.9964C49.9098 59.9962 51.0247 59.5751 51.6834 59.1494C52.1741 58.8505 52.2212 58.0934 51.7718 57.7357C51.0713 57.1467 49.1967 55.3203 48.9377 53.9604C48.4997 51.6595 49.7404 49.2312 49.7522 49.2084C50.0837 48.6218 49.5662 47.8439 48.8974 47.9226C45.1015 48.2453 43.4238 51.1649 42.9229 52.2644C42.4777 52.4046 41.9951 52.4865 41.4836 52.5082C39.7484 52.5808 38.7881 51.3975 38.4893 50.3608C38.1941 49.337 38.3769 47.8404 39.8622 46.9926L39.9393 46.9494C40.3273 46.7353 40.7302 46.5205 41.1196 46.3128C43.4207 45.086 45.8002 43.8175 47.6016 41.4702C47.8976 41.0844 47.8249 40.5316 47.439 40.2356C47.0531 39.9396 46.5004 40.0123 46.2042 40.3982C45.4747 41.3487 44.6275 42.0991 43.7061 42.7512C40.9234 41.2562 39.4607 38.6917 39.3512 35.1151C43.2091 34.0003 46.9045 34.3452 48.4669 34.5784C48.3098 35.6573 48.0696 36.6483 47.75 37.5333C47.5849 37.9907 47.8218 38.4954 48.2793 38.6605C48.7368 38.8259 49.2415 38.5888 49.4066 38.1313C49.8206 36.9847 50.1131 35.6901 50.2806 34.2819C50.7502 33.8373 51.8045 32.7961 52.7859 31.5273C54.6496 29.1182 55.2866 27.1281 54.6796 25.6124C53.6646 23.0781 50.6498 23.3125 47.9899 23.5193C44.8163 23.7661 42.6802 23.7838 41.9284 21.8582C41.3929 20.4864 41.6914 17.076 49.7085 9.64839C54.3258 5.37058 59.3195 1.82284 59.6118 1.61624C59.6746 1.57148 59.7321 1.52308 59.782 1.4646C60.3457 0.862374 59.7282 -0.17661 58.9302 0.0256557ZM15.0843 39.4655C16.7337 39.4655 18.0756 40.808 18.0756 42.4581C18.0756 43.2694 17.7507 44.0058 17.225 44.5453L15.8575 42.0367C15.6246 41.6096 15.0899 41.4521 14.6627 41.6849C14.2357 41.9176 14.0782 42.4525 14.3109 42.8794L15.68 45.3908C15.4874 45.43 15.2882 45.4506 15.0843 45.4506C13.4348 45.4506 12.0929 44.1081 12.0929 42.458C12.0929 40.8078 13.4348 39.4655 15.0843 39.4655ZM28.6533 44.5789C27.7884 43.322 27.4336 41.8325 27.4979 40.7177C27.5435 39.9294 27.7968 39.3265 28.1757 39.1052C28.8309 38.7227 29.7857 38.5539 30.939 38.6042C29.7336 40.3003 28.9386 42.3511 28.6533 44.5789Z" fill="#DC3545"/>
<path d="M44.625 36.4977C44.3693 36.0841 43.8265 35.9559 43.4129 36.2118C42.9992 36.4675 42.8712 37.01 43.127 37.4237L43.4965 38.0212C43.7538 38.4384 44.3013 38.5607 44.7087 38.3072C45.1223 38.0515 45.2504 37.5089 44.9946 37.0952L44.625 36.4977Z" fill="#DC3545"/>
</g>
</g>
<defs>
<clipPath id="clip0_427_262">
<rect width="308" height="60" fill="white"/>
</clipPath>
<clipPath id="clip1_427_262">
<rect width="60" height="60" fill="white"/>
</clipPath>
</defs>
</svg>
