<svg width="286" height="60" viewBox="0 0 286 60" fill="none" xmlns="http://www.w3.org/2000/svg">
<path d="M72.6 26.72V25H74.34V35H72.6V33.28C71.7467 34.6 70.4867 35.26 68.82 35.26C67.4067 35.26 66.2133 34.7533 65.24 33.74C64.2533 32.7133 63.76 31.4667 63.76 30C63.76 28.5467 64.2533 27.3067 65.24 26.28C66.2267 25.2533 67.42 24.74 68.82 24.74C70.4867 24.74 71.7467 25.4 72.6 26.72ZM69.04 33.58C70.0533 33.58 70.9 33.24 71.58 32.56C72.26 31.8533 72.6 31 72.6 30C72.6 28.9867 72.26 28.14 71.58 27.46C70.9 26.7667 70.0533 26.42 69.04 26.42C68.04 26.42 67.2 26.7667 66.52 27.46C65.84 28.14 65.5 28.9867 65.5 30C65.5 31 65.84 31.8533 66.52 32.56C67.2 33.24 68.04 33.58 69.04 33.58ZM81.6763 35.26C80.1696 35.26 78.9163 34.76 77.9163 33.76C76.9163 32.7467 76.4163 31.4933 76.4163 30C76.4163 28.5067 76.9163 27.26 77.9163 26.26C78.9163 25.2467 80.1696 24.74 81.6763 24.74C82.6629 24.74 83.5496 24.98 84.3363 25.46C85.1229 25.9267 85.7096 26.56 86.0963 27.36L84.6363 28.2C84.3829 27.6667 83.9896 27.24 83.4563 26.92C82.9363 26.6 82.3429 26.44 81.6763 26.44C80.6763 26.44 79.8363 26.78 79.1563 27.46C78.4896 28.1533 78.1562 29 78.1562 30C78.1562 30.9867 78.4896 31.8267 79.1563 32.52C79.8363 33.2 80.6763 33.54 81.6763 33.54C82.3429 33.54 82.9429 33.3867 83.4763 33.08C84.0096 32.76 84.4163 32.3333 84.6963 31.8L86.1763 32.66C85.7363 33.46 85.1163 34.0933 84.3163 34.56C83.5163 35.0267 82.6363 35.26 81.6763 35.26ZM86.618 25H95.178V26.68H91.778V35H90.038V26.68H86.618V25ZM102.223 24.74C103.623 24.74 104.816 25.2533 105.803 26.28C106.789 27.3067 107.283 28.5467 107.283 30C107.283 31.4667 106.789 32.7133 105.803 33.74C104.829 34.7533 103.636 35.26 102.223 35.26C100.569 35.26 99.3095 34.6 98.4428 33.28V39H96.7028V25H98.4428V26.72C99.3095 25.4 100.569 24.74 102.223 24.74ZM102.003 33.58C103.003 33.58 103.843 33.24 104.523 32.56C105.203 31.8533 105.543 31 105.543 30C105.543 28.9867 105.203 28.14 104.523 27.46C103.843 26.7667 103.003 26.42 102.003 26.42C100.989 26.42 100.143 26.7667 99.4628 27.46C98.7828 28.14 98.4428 28.9867 98.4428 30C98.4428 31 98.7828 31.8533 99.4628 32.56C100.143 33.24 100.989 33.58 102.003 33.58ZM117.639 26.72V25H119.379V35H117.639V33.28C116.786 34.6 115.526 35.26 113.859 35.26C112.446 35.26 111.252 34.7533 110.279 33.74C109.292 32.7133 108.799 31.4667 108.799 30C108.799 28.5467 109.292 27.3067 110.279 26.28C111.266 25.2533 112.459 24.74 113.859 24.74C115.526 24.74 116.786 25.4 117.639 26.72ZM114.079 33.58C115.092 33.58 115.939 33.24 116.619 32.56C117.299 31.8533 117.639 31 117.639 30C117.639 28.9867 117.299 28.14 116.619 27.46C115.939 26.7667 115.092 26.42 114.079 26.42C113.079 26.42 112.239 26.7667 111.559 27.46C110.879 28.14 110.539 28.9867 110.539 30C110.539 31 110.879 31.8533 111.559 32.56C112.239 33.24 113.079 33.58 114.079 33.58ZM126.875 29.84L130.695 35H128.655L125.855 31.22L123.035 35H120.995L124.835 29.86L121.215 25H123.275L125.855 28.48L128.435 25H130.475L126.875 29.84ZM139.885 26.72V25H141.625V35H139.885V33.28C139.032 34.6 137.772 35.26 136.105 35.26C134.692 35.26 133.498 34.7533 132.525 33.74C131.538 32.7133 131.045 31.4667 131.045 30C131.045 28.5467 131.538 27.3067 132.525 26.28C133.512 25.2533 134.705 24.74 136.105 24.74C137.772 24.74 139.032 25.4 139.885 26.72ZM136.325 33.58C137.338 33.58 138.185 33.24 138.865 32.56C139.545 31.8533 139.885 31 139.885 30C139.885 28.9867 139.545 28.14 138.865 27.46C138.185 26.7667 137.338 26.42 136.325 26.42C135.325 26.42 134.485 26.7667 133.805 27.46C133.125 28.14 132.785 28.9867 132.785 30C132.785 31 133.125 31.8533 133.805 32.56C134.485 33.24 135.325 33.58 136.325 33.58ZM151.181 29.16V25H152.921V35H151.181V30.82H146.001V35H144.261V25H146.001V29.16H151.181ZM160.27 35.26C158.763 35.26 157.51 34.76 156.51 33.76C155.51 32.7467 155.01 31.4933 155.01 30C155.01 28.5067 155.51 27.26 156.51 26.26C157.51 25.2467 158.763 24.74 160.27 24.74C161.257 24.74 162.143 24.98 162.93 25.46C163.717 25.9267 164.303 26.56 164.69 27.36L163.23 28.2C162.977 27.6667 162.583 27.24 162.05 26.92C161.53 26.6 160.937 26.44 160.27 26.44C159.27 26.44 158.43 26.78 157.75 27.46C157.083 28.1533 156.75 29 156.75 30C156.75 30.9867 157.083 31.8267 157.75 32.52C158.43 33.2 159.27 33.54 160.27 33.54C160.937 33.54 161.537 33.3867 162.07 33.08C162.603 32.76 163.01 32.3333 163.29 31.8L164.77 32.66C164.33 33.46 163.71 34.0933 162.91 34.56C162.11 35.0267 161.23 35.26 160.27 35.26ZM170.028 29.84L174.968 35H172.808L168.248 30.26V35H166.507V25H168.248V29.42L172.568 25H174.808L170.028 29.84ZM178.306 32.02L183.846 25H185.246V35H183.526V27.98L177.986 35H176.586V25H178.306V32.02ZM197.494 30.8H189.114C189.288 31.68 189.694 32.3733 190.334 32.88C190.974 33.3733 191.774 33.62 192.734 33.62C194.054 33.62 195.014 33.1333 195.614 32.16L197.094 33C196.108 34.5067 194.641 35.26 192.694 35.26C191.121 35.26 189.828 34.7667 188.814 33.78C187.828 32.7667 187.334 31.5067 187.334 30C187.334 28.48 187.821 27.2267 188.794 26.24C189.768 25.24 191.028 24.74 192.574 24.74C194.041 24.74 195.234 25.26 196.154 26.3C197.088 27.3133 197.554 28.5533 197.554 30.02C197.554 30.2733 197.534 30.5333 197.494 30.8ZM192.574 26.38C191.654 26.38 190.881 26.64 190.254 27.16C189.641 27.68 189.261 28.3867 189.114 29.28H195.794C195.648 28.36 195.281 27.6467 194.694 27.14C194.108 26.6333 193.401 26.38 192.574 26.38ZM207.034 29.7H199.734V28.02H207.034V29.7ZM214.387 35.26C212.907 35.26 211.687 34.7733 210.727 33.8C209.767 32.8133 209.287 31.56 209.287 30.04C209.287 28.32 209.534 27.0067 210.027 26.1C210.534 25.18 211.561 24.3467 213.107 23.6C213.187 23.56 213.281 23.5133 213.387 23.46C213.507 23.4067 213.647 23.3467 213.807 23.28C213.981 23.2 214.127 23.1333 214.247 23.08L215.327 22.6C216.394 22.0667 216.961 21.4267 217.027 20.68L218.427 21.48C218.334 21.9467 218.181 22.32 217.967 22.6C217.954 22.6267 217.914 22.6867 217.847 22.78C217.781 22.86 217.734 22.92 217.707 22.96C217.681 22.9867 217.634 23.0333 217.567 23.1C217.514 23.1533 217.454 23.2067 217.387 23.26C217.334 23.3133 217.261 23.3667 217.167 23.42C216.674 23.7267 216.321 23.9267 216.107 24.02C216.027 24.06 215.941 24.1 215.847 24.14C215.767 24.18 215.701 24.2133 215.647 24.24C215.594 24.2667 215.554 24.2867 215.527 24.3L214.867 24.58L214.227 24.84C213.334 25.2267 212.674 25.62 212.247 26.02C211.821 26.42 211.514 26.9267 211.327 27.54C211.741 27.0333 212.261 26.6467 212.887 26.38C213.527 26.1133 214.181 25.98 214.847 25.98C216.114 25.98 217.174 26.4067 218.027 27.26C218.907 28.1267 219.347 29.2267 219.347 30.56C219.347 31.92 218.881 33.0467 217.947 33.94C217.001 34.82 215.814 35.26 214.387 35.26ZM217.607 30.56C217.607 29.6667 217.314 28.94 216.727 28.38C216.154 27.8067 215.394 27.52 214.447 27.52C213.607 27.52 212.834 27.7933 212.127 28.34C211.447 28.8867 211.107 29.5933 211.107 30.46C211.107 31.3667 211.421 32.1133 212.047 32.7C212.674 33.2867 213.454 33.58 214.387 33.58C215.334 33.58 216.101 33.2933 216.687 32.72C217.301 32.1467 217.607 31.4267 217.607 30.56ZM229.475 26.72V25H231.215V35H229.475V33.28C228.622 34.6 227.362 35.26 225.695 35.26C224.282 35.26 223.088 34.7533 222.115 33.74C221.128 32.7133 220.635 31.4667 220.635 30C220.635 28.5467 221.128 27.3067 222.115 26.28C223.102 25.2533 224.295 24.74 225.695 24.74C227.362 24.74 228.622 25.4 229.475 26.72ZM225.915 33.58C226.928 33.58 227.775 33.24 228.455 32.56C229.135 31.8533 229.475 31 229.475 30C229.475 28.9867 229.135 28.14 228.455 27.46C227.775 26.7667 226.928 26.42 225.915 26.42C224.915 26.42 224.075 26.7667 223.395 27.46C222.715 28.14 222.375 28.9867 222.375 30C222.375 31 222.715 31.8533 223.395 32.56C224.075 33.24 224.915 33.58 225.915 33.58ZM239.251 29.88C240.358 30.3467 240.911 31.14 240.911 32.26C240.911 33.1267 240.571 33.8467 239.891 34.42C239.211 34.98 238.271 35.26 237.071 35.26C235.071 35.26 233.731 34.46 233.051 32.86L234.511 32C234.885 33.0933 235.745 33.64 237.091 33.64C237.745 33.64 238.258 33.5 238.631 33.22C239.005 32.94 239.191 32.5667 239.191 32.1C239.191 31.7 239.038 31.3733 238.731 31.12C238.438 30.8667 238.038 30.74 237.531 30.74H236.071V29.16H237.151C237.658 29.16 238.051 29.04 238.331 28.8C238.611 28.5467 238.751 28.2067 238.751 27.78C238.751 27.34 238.585 26.9933 238.251 26.74C237.918 26.4733 237.471 26.34 236.911 26.34C235.791 26.34 235.031 26.8133 234.631 27.76L233.211 26.94C233.918 25.4733 235.151 24.74 236.911 24.74C237.978 24.74 238.831 25.02 239.471 25.58C240.125 26.1267 240.451 26.8133 240.451 27.64C240.451 28.6533 240.051 29.4 239.251 29.88ZM244.537 28.6H247.017C248.017 28.6 248.843 28.9 249.497 29.5C250.163 30.0867 250.497 30.8533 250.497 31.8C250.497 32.7467 250.163 33.52 249.497 34.12C248.83 34.7067 248.003 35 247.017 35H242.797V25H244.537V28.6ZM251.797 35V25H253.537V35H251.797ZM244.537 33.38H247.017C247.523 33.38 247.943 33.2333 248.277 32.94C248.61 32.6467 248.777 32.2667 248.777 31.8C248.777 31.3333 248.603 30.9533 248.257 30.66C247.923 30.3533 247.51 30.2 247.017 30.2H244.537V33.38ZM257.295 35.22C256.935 35.22 256.628 35.0933 256.375 34.84C256.122 34.5867 255.995 34.28 255.995 33.92C255.995 33.56 256.122 33.2533 256.375 33C256.628 32.7467 256.935 32.62 257.295 32.62C257.668 32.62 257.975 32.7467 258.215 33C258.468 33.2533 258.595 33.56 258.595 33.92C258.595 34.28 258.468 34.5867 258.215 34.84C257.975 35.0933 257.668 35.22 257.295 35.22ZM266.578 24.74C267.978 24.74 269.172 25.2533 270.158 26.28C271.145 27.3067 271.638 28.5467 271.638 30C271.638 31.4667 271.145 32.7133 270.158 33.74C269.185 34.7533 267.992 35.26 266.578 35.26C264.925 35.26 263.665 34.6 262.798 33.28V39H261.058V25H262.798V26.72C263.665 25.4 264.925 24.74 266.578 24.74ZM266.358 33.58C267.358 33.58 268.198 33.24 268.878 32.56C269.558 31.8533 269.898 31 269.898 30C269.898 28.9867 269.558 28.14 268.878 27.46C268.198 26.7667 267.358 26.42 266.358 26.42C265.345 26.42 264.498 26.7667 263.818 27.46C263.138 28.14 262.798 28.9867 262.798 30C262.798 31 263.138 31.8533 263.818 32.56C264.498 33.24 265.345 33.58 266.358 33.58ZM280.015 35.2V39H278.295V35.2C276.735 35.0267 275.488 34.46 274.555 33.5C273.621 32.5533 273.155 31.3867 273.155 30C273.155 28.6133 273.621 27.4467 274.555 26.5C275.488 25.54 276.735 24.9733 278.295 24.8V21H280.015V24.8C281.575 24.9733 282.821 25.54 283.755 26.5C284.688 27.4467 285.155 28.6133 285.155 30C285.155 31.3867 284.688 32.5533 283.755 33.5C282.821 34.46 281.575 35.0267 280.015 35.2ZM274.875 30C274.875 30.9333 275.175 31.72 275.775 32.36C276.388 32.9867 277.228 33.3733 278.295 33.52V26.48C277.241 26.6133 276.408 27 275.795 27.64C275.181 28.2667 274.875 29.0533 274.875 30ZM280.015 26.48V33.52C281.068 33.3733 281.895 32.9867 282.495 32.36C283.108 31.72 283.415 30.9333 283.415 30C283.415 29.0667 283.108 28.2867 282.495 27.66C281.895 27.02 281.068 26.6267 280.015 26.48Z" fill="#4B4B4B"/>
<path d="M59.5042 0.0257119C47.7528 2.31966 37.3593 7.01396 28.6121 13.9788C21.9391 19.2918 16.2365 25.9027 11.6522 33.6358C10.1589 33.2335 8.45437 33.9715 7.74711 35.3444C7.1053 36.5385 6.48336 37.7666 5.89858 38.9949C5.68914 39.4347 5.87941 39.9595 6.32362 40.1668C6.7677 40.3741 7.2977 40.1857 7.50702 39.7458C8.07962 38.5432 8.68854 37.3408 9.31687 36.1717C9.72392 35.3751 10.7978 35.0499 11.5846 35.4861C12.4009 35.9166 12.7114 36.9249 12.2767 37.7337C6.71245 48.0876 5.12246 56.7755 5.10708 56.862C4.95562 57.7594 4.06625 58.3757 3.16589 58.2109C2.25618 58.053 1.64501 57.1914 1.80357 56.2904C1.84416 56.0594 2.83469 50.5452 6.07205 42.9319C6.26268 42.4837 6.05028 41.9675 5.59767 41.7787C5.14494 41.5899 4.62358 41.8004 4.43307 42.2485C1.11821 50.0441 0.0935972 55.7494 0.0515904 55.9882C-0.275116 57.8447 0.984141 59.6199 2.85835 59.9454C4.71328 60.2836 6.54714 59.0145 6.85834 57.1687C6.87041 57.102 7.85515 51.7871 10.9432 44.5892C11.7334 46.143 13.3583 47.2117 15.2312 47.2117C15.7463 47.2117 16.2423 47.1299 16.7078 46.9805L17.5386 48.4898C17.3677 48.7622 17.2674 49.0824 17.2674 49.4261C17.2674 50.4087 18.0745 51.2082 19.0667 51.2082C20.0588 51.2082 20.866 50.4087 20.866 49.4261C20.866 48.4544 20.0764 47.6631 19.0994 47.6457L18.2682 46.1357C19.343 45.2633 20.0301 43.9388 20.0301 42.4581C20.0301 39.837 17.8774 37.7044 15.2312 37.7044C14.8544 37.7044 14.488 37.7484 14.136 37.83C14.4561 36.6346 14.0917 35.3553 13.2027 34.4989C17.6744 26.9628 23.2306 20.5234 29.7265 15.3511C37.2366 9.37153 46.0005 5.10931 55.8246 2.64954C53.9019 4.12704 51.4006 6.14009 48.9961 8.34532C46.1127 10.99 43.9226 13.397 42.487 15.4997C40.5664 18.3126 39.9586 20.6672 40.6804 22.4983C41.9759 25.7846 45.6463 25.5017 48.5956 25.2747C51.3499 25.0625 53.0588 25.0233 53.5615 26.2667C54.2304 27.9207 51.3985 31.2617 49.654 32.9058C47.7017 32.5556 40.1855 31.5788 34.0044 35.8688C33.5251 36.2015 33.0745 36.5722 32.6533 36.9752C31.0857 36.7442 29.0709 36.7069 27.5532 37.5847C26.6282 38.1196 26.0732 39.1963 25.9904 40.6163C25.8749 42.5975 26.7162 45.3061 28.8313 47.0808C28.9807 50.1995 30.1561 53.1441 32.1445 55.237C32.4815 55.5917 33.0444 55.6076 33.4014 55.2749C33.7591 54.9418 33.7763 54.3845 33.4398 54.0303C31.3487 51.8293 30.3093 48.4975 30.6596 45.1178C30.9986 41.8466 32.5898 39.0011 35.025 37.3109C35.9797 36.6482 36.9776 36.1268 37.9841 35.7174C38.229 39.2887 39.7511 42.0457 42.4453 43.8052C41.8719 44.1305 41.2822 44.4426 40.6834 44.7588C40.2845 44.9695 39.872 45.1872 39.469 45.4075C39.436 45.4256 39.4034 45.4436 39.3699 45.4625C37.4272 46.5606 36.5373 48.7251 37.1554 50.8485C37.7784 52.9886 39.7091 54.3615 41.9635 54.2676C42.8145 54.2317 43.6147 54.0674 44.3419 53.7793C44.5795 53.6852 44.7659 53.4909 44.8512 53.2519C44.8913 53.1398 45.7135 50.9143 48.0111 50.0214C47.6633 51.1428 47.3636 52.7089 47.6674 54.2895C47.9409 55.7119 49.1622 57.177 50.0846 58.1124C48.9819 58.373 47.2265 58.3593 45.466 56.5793C45.2137 56.3242 44.8277 56.2465 44.4936 56.3807C44.473 56.3889 42.4014 57.2003 39.1892 56.8213C38.0573 56.6879 36.9996 56.3876 36.0454 55.9293C35.6036 55.7172 35.0715 55.8998 34.8572 56.3372C34.6429 56.7747 34.8273 57.3015 35.2691 57.5138C36.4018 58.0579 37.6499 58.4132 38.9789 58.57C41.6775 58.8885 43.6772 58.4671 44.6029 58.1989C46.1176 59.5493 47.7002 59.9965 49.0683 59.9964C50.3959 59.9963 51.5217 59.5751 52.1869 59.1495C52.6823 58.8506 52.7299 58.0934 52.2761 57.7358C51.5687 57.1468 49.6759 55.3204 49.4144 53.9604C48.9721 51.6596 50.2248 49.2312 50.2368 49.2085C50.5715 48.6218 50.049 47.844 49.3737 47.9227C45.5408 48.2453 43.8468 51.1649 43.3409 52.2645C42.8914 52.4047 42.4041 52.4866 41.8876 52.5083C40.1355 52.5809 39.1659 51.3975 38.8642 50.3609C38.5661 49.337 38.7507 47.8404 40.2504 46.9927L40.3283 46.9495C40.7201 46.7354 41.1269 46.5206 41.5201 46.3129C43.8436 45.0861 46.2463 43.8175 48.0652 41.4702C48.3641 41.0845 48.2908 40.5317 47.9011 40.2357C47.5114 39.9397 46.9533 40.0123 46.6543 40.3982C45.9177 41.3487 45.0621 42.0992 44.1318 42.7512C41.322 41.2563 39.845 38.6917 39.7345 35.1152C43.63 34.0004 47.3614 34.3452 48.939 34.5784C48.7804 35.6574 48.5378 36.6483 48.2151 37.5333C48.0484 37.9907 48.2876 38.4954 48.7495 38.6606C49.2115 38.8259 49.7211 38.5888 49.8878 38.1313C50.3059 36.9848 50.6012 35.6902 50.7703 34.282C51.2445 33.8374 52.3091 32.7961 53.3001 31.5273C55.1819 29.1182 55.8251 27.1281 55.2122 25.6124C54.1873 23.0781 51.1432 23.3125 48.4574 23.5193C45.2528 23.7661 43.0959 23.7838 42.3368 21.8582C41.796 20.4864 42.0975 17.076 50.1927 9.64845C54.8549 5.37063 59.8973 1.8229 60.1924 1.6163C60.2558 1.57153 60.3139 1.52313 60.3643 1.46466C60.9335 0.862431 60.31 -0.176554 59.5042 0.0257119ZM15.2312 39.4655C16.8967 39.4655 18.2516 40.808 18.2516 42.4581C18.2516 43.2694 17.9236 44.0058 17.3928 44.5454L16.0119 42.0367C15.7768 41.6097 15.2369 41.4522 14.8056 41.6849C14.3744 41.9177 14.2153 42.4525 14.4503 42.8794L15.8328 45.3909C15.6382 45.43 15.4371 45.4506 15.2312 45.4506C13.5657 45.4506 12.2107 44.1081 12.2107 42.458C12.2107 40.8079 13.5657 39.4655 15.2312 39.4655ZM28.9324 44.579C28.0591 43.322 27.7008 41.8326 27.7658 40.7178C27.8118 39.9295 28.0675 39.3265 28.4502 39.1053C29.1118 38.7228 30.0758 38.5539 31.2404 38.6043C30.0232 40.3004 29.2205 42.3511 28.9324 44.579Z" fill="#DC3545"/>
<path d="M45.0597 36.4977C44.8015 36.0842 44.2534 35.956 43.8358 36.2118C43.4181 36.4675 43.2888 37.0101 43.5471 37.4238L43.9202 38.0213C44.18 38.4385 44.7329 38.5607 45.1442 38.3072C45.5619 38.0515 45.6912 37.509 45.4329 37.0953L45.0597 36.4977Z" fill="#DC3545"/>
</svg>
