<svg width="288" height="60" viewBox="0 0 288 60" fill="none" xmlns="http://www.w3.org/2000/svg">
<g clip-path="url(#clip0_2408_379)">
<path d="M58.9302 0.0257119C47.2922 2.31966 36.9989 7.01396 28.3361 13.9788C21.7275 19.2918 16.0799 25.9027 11.5398 33.6358C10.0609 33.2335 8.37281 33.9715 7.67238 35.3444C7.03676 36.5385 6.42082 37.7666 5.84168 38.9949C5.63426 39.4347 5.8227 39.9595 6.26262 40.1668C6.70242 40.3741 7.2273 40.1857 7.43461 39.7458C8.00168 38.5432 8.60473 37.3408 9.22699 36.1717C9.63012 35.3751 10.6936 35.0499 11.4729 35.4861C12.2812 35.9166 12.5887 36.9249 12.1583 37.7337C6.64769 48.0876 5.07305 56.7755 5.05781 56.862C4.90781 57.7594 4.02703 58.3757 3.13535 58.2109C2.23441 58.053 1.62914 57.1914 1.78617 56.2904C1.82637 56.0594 2.80734 50.5452 6.01348 42.9319C6.20226 42.4837 5.99191 41.9675 5.54367 41.7787C5.09531 41.5899 4.57898 41.8004 4.39031 42.2485C1.10742 50.0441 0.0926943 55.7494 0.0510927 55.9882C-0.272462 57.8447 0.974647 59.6199 2.83078 59.9454C4.66781 60.2836 6.48398 59.0145 6.79219 57.1687C6.80414 57.102 7.77937 51.7871 10.8376 44.5892C11.6202 46.143 13.2294 47.2117 15.0843 47.2117C15.5944 47.2117 16.0856 47.1299 16.5466 46.9805L17.3694 48.4898C17.2002 48.7622 17.1008 49.0824 17.1008 49.4261C17.1008 50.4087 17.9002 51.2082 18.8828 51.2082C19.8653 51.2082 20.6647 50.4087 20.6647 49.4261C20.6647 48.4544 19.8827 47.6631 18.9151 47.6457L18.092 46.1357C19.1564 45.2633 19.8369 43.9388 19.8369 42.4581C19.8369 39.837 17.7049 37.7044 15.0843 37.7044C14.7111 37.7044 14.3482 37.7484 13.9997 37.83C14.3167 36.6346 13.9557 35.3553 13.0753 34.4989C17.5039 26.9628 23.0065 20.5234 29.4397 15.3511C36.8774 9.37153 45.5568 5.10931 55.2861 2.64954C53.382 4.12704 50.9047 6.14009 48.5235 8.34532C45.6679 10.99 43.4989 13.397 42.0771 15.4997C40.175 18.3126 39.5732 20.6672 40.288 22.4983C41.571 25.7846 45.206 25.5017 48.1268 25.2747C50.8546 25.0625 52.547 25.0233 53.0448 26.2667C53.7073 27.9207 50.9027 31.2617 49.175 32.9058C47.2416 32.5556 39.7978 31.5788 33.6764 35.8688C33.2017 36.2015 32.7554 36.5722 32.3384 36.9752C30.7859 36.7442 28.7905 36.7069 27.2875 37.5847C26.3713 38.1196 25.8217 39.1963 25.7396 40.6163C25.6253 42.5975 26.4585 45.3061 28.5532 47.0808C28.7011 50.1995 29.8652 53.1441 31.8345 55.237C32.1682 55.5917 32.7257 55.6076 33.0792 55.2749C33.4335 54.9418 33.4505 54.3845 33.1172 54.0303C31.0463 51.8293 30.0169 48.4975 30.3639 45.1178C30.6996 41.8466 32.2754 39.0011 34.6872 37.3109C35.6326 36.6482 36.6209 36.1268 37.6177 35.7174C37.8602 39.2887 39.3676 42.0457 42.0359 43.8052C41.468 44.1305 40.884 44.4426 40.2909 44.7588C39.8959 44.9695 39.4874 45.1872 39.0882 45.4075C39.0556 45.4256 39.0233 45.4436 38.9902 45.4625C37.0662 46.5606 36.1848 48.7251 36.797 50.8485C37.414 52.9886 39.326 54.3615 41.5587 54.2676C42.4015 54.2317 43.194 54.0674 43.9141 53.7793C44.1495 53.6852 44.334 53.4909 44.4185 53.2519C44.4582 53.1398 45.2726 50.9143 47.548 50.0214C47.2035 51.1428 46.9068 52.7089 47.2076 54.2895C47.4784 55.7119 48.688 57.177 49.6015 58.1124C48.5094 58.373 46.7709 58.3593 45.0274 56.5793C44.7776 56.3242 44.3953 56.2465 44.0644 56.3807C44.044 56.3889 41.9924 57.2003 38.8112 56.8213C37.6902 56.6879 36.6427 56.3876 35.6977 55.9293C35.2602 55.7172 34.7332 55.8998 34.521 56.3372C34.3088 56.7747 34.4913 57.3015 34.9289 57.5138C36.0506 58.0579 37.2867 58.4132 38.6029 58.57C41.2754 58.8885 43.2559 58.4671 44.1727 58.1989C45.6728 59.5493 47.24 59.9965 48.595 59.9964C49.9098 59.9963 51.0247 59.5751 51.6834 59.1495C52.1741 58.8506 52.2212 58.0934 51.7718 57.7358C51.0713 57.1468 49.1967 55.3204 48.9377 53.9604C48.4997 51.6596 49.7404 49.2312 49.7522 49.2085C50.0837 48.6218 49.5662 47.844 48.8974 47.9227C45.1015 48.2453 43.4238 51.1649 42.9229 52.2645C42.4777 52.4047 41.9951 52.4866 41.4836 52.5083C39.7484 52.5809 38.7881 51.3975 38.4893 50.3609C38.1941 49.337 38.3769 47.8404 39.8622 46.9927L39.9393 46.9495C40.3273 46.7354 40.7302 46.5206 41.1196 46.3129C43.4207 45.0861 45.8002 43.8175 47.6016 41.4702C47.8976 41.0845 47.8249 40.5317 47.439 40.2357C47.0531 39.9397 46.5004 40.0123 46.2042 40.3982C45.4747 41.3487 44.6275 42.0992 43.7061 42.7512C40.9234 41.2563 39.4607 38.6917 39.3512 35.1152C43.2091 34.0004 46.9045 34.3452 48.4669 34.5784C48.3098 35.6574 48.0696 36.6483 47.75 37.5333C47.5849 37.9907 47.8218 38.4954 48.2793 38.6606C48.7368 38.8259 49.2415 38.5888 49.4066 38.1313C49.8206 36.9848 50.1131 35.6902 50.2806 34.282C50.7502 33.8374 51.8045 32.7961 52.7859 31.5273C54.6496 29.1182 55.2866 27.1281 54.6796 25.6124C53.6646 23.0781 50.6498 23.3125 47.9899 23.5193C44.8163 23.7661 42.6802 23.7838 41.9284 21.8582C41.3929 20.4864 41.6914 17.076 49.7085 9.64845C54.3258 5.37063 59.3195 1.8229 59.6118 1.6163C59.6746 1.57153 59.7321 1.52313 59.782 1.46466C60.3457 0.862431 59.7282 -0.176554 58.9302 0.0257119ZM15.0843 39.4655C16.7337 39.4655 18.0756 40.808 18.0756 42.4581C18.0756 43.2694 17.7507 44.0058 17.225 44.5454L15.8575 42.0367C15.6246 41.6097 15.0899 41.4522 14.6627 41.6849C14.2357 41.9177 14.0782 42.4525 14.3109 42.8794L15.68 45.3909C15.4874 45.43 15.2882 45.4506 15.0843 45.4506C13.4348 45.4506 12.0929 44.1081 12.0929 42.458C12.0929 40.8079 13.4348 39.4655 15.0843 39.4655ZM28.6533 44.579C27.7884 43.322 27.4336 41.8326 27.4979 40.7178C27.5435 39.9295 27.7968 39.3265 28.1757 39.1053C28.8309 38.7228 29.7857 38.5539 30.939 38.6043C29.7336 40.3004 28.9386 42.3511 28.6533 44.579Z" fill="#DC3545"/>
<path d="M44.625 36.4977C44.3693 36.0842 43.8265 35.956 43.4129 36.2118C42.9992 36.4675 42.8712 37.0101 43.127 37.4237L43.4965 38.0213C43.7538 38.4385 44.3013 38.5607 44.7087 38.3072C45.1223 38.0515 45.2504 37.5089 44.9946 37.0953L44.625 36.4977Z" fill="#DC3545"/>
</g>
<path d="M74.6 23.72V22H76.34V32H74.6V30.28C73.7467 31.6 72.4867 32.26 70.82 32.26C69.4067 32.26 68.2133 31.7533 67.24 30.74C66.2533 29.7133 65.76 28.4667 65.76 27C65.76 25.5467 66.2533 24.3067 67.24 23.28C68.2267 22.2533 69.42 21.74 70.82 21.74C72.4867 21.74 73.7467 22.4 74.6 23.72ZM71.04 30.58C72.0533 30.58 72.9 30.24 73.58 29.56C74.26 28.8533 74.6 28 74.6 27C74.6 25.9867 74.26 25.14 73.58 24.46C72.9 23.7667 72.0533 23.42 71.04 23.42C70.04 23.42 69.2 23.7667 68.52 24.46C67.84 25.14 67.5 25.9867 67.5 27C67.5 28 67.84 28.8533 68.52 29.56C69.2 30.24 70.04 30.58 71.04 30.58ZM83.6763 32.26C82.1696 32.26 80.9163 31.76 79.9163 30.76C78.9163 29.7467 78.4163 28.4933 78.4163 27C78.4163 25.5067 78.9163 24.26 79.9163 23.26C80.9163 22.2467 82.1696 21.74 83.6763 21.74C84.6629 21.74 85.5496 21.98 86.3363 22.46C87.1229 22.9267 87.7096 23.56 88.0963 24.36L86.6363 25.2C86.3829 24.6667 85.9896 24.24 85.4563 23.92C84.9363 23.6 84.3429 23.44 83.6763 23.44C82.6763 23.44 81.8363 23.78 81.1563 24.46C80.4896 25.1533 80.1562 26 80.1562 27C80.1562 27.9867 80.4896 28.8267 81.1563 29.52C81.8363 30.2 82.6763 30.54 83.6763 30.54C84.3429 30.54 84.9429 30.3867 85.4763 30.08C86.0096 29.76 86.4163 29.3333 86.6963 28.8L88.1763 29.66C87.7363 30.46 87.1163 31.0933 86.3163 31.56C85.5163 32.0267 84.6363 32.26 83.6763 32.26ZM88.618 22H97.178V23.68H93.778V32H92.038V23.68H88.618V22ZM104.223 21.74C105.623 21.74 106.816 22.2533 107.803 23.28C108.789 24.3067 109.283 25.5467 109.283 27C109.283 28.4667 108.789 29.7133 107.803 30.74C106.829 31.7533 105.636 32.26 104.223 32.26C102.569 32.26 101.309 31.6 100.443 30.28V36H98.7028V22H100.443V23.72C101.309 22.4 102.569 21.74 104.223 21.74ZM104.003 30.58C105.003 30.58 105.843 30.24 106.523 29.56C107.203 28.8533 107.543 28 107.543 27C107.543 25.9867 107.203 25.14 106.523 24.46C105.843 23.7667 105.003 23.42 104.003 23.42C102.989 23.42 102.143 23.7667 101.463 24.46C100.783 25.14 100.443 25.9867 100.443 27C100.443 28 100.783 28.8533 101.463 29.56C102.143 30.24 102.989 30.58 104.003 30.58ZM119.639 23.72V22H121.379V32H119.639V30.28C118.786 31.6 117.526 32.26 115.859 32.26C114.446 32.26 113.252 31.7533 112.279 30.74C111.292 29.7133 110.799 28.4667 110.799 27C110.799 25.5467 111.292 24.3067 112.279 23.28C113.266 22.2533 114.459 21.74 115.859 21.74C117.526 21.74 118.786 22.4 119.639 23.72ZM116.079 30.58C117.092 30.58 117.939 30.24 118.619 29.56C119.299 28.8533 119.639 28 119.639 27C119.639 25.9867 119.299 25.14 118.619 24.46C117.939 23.7667 117.092 23.42 116.079 23.42C115.079 23.42 114.239 23.7667 113.559 24.46C112.879 25.14 112.539 25.9867 112.539 27C112.539 28 112.879 28.8533 113.559 29.56C114.239 30.24 115.079 30.58 116.079 30.58ZM128.875 26.84L132.695 32H130.655L127.855 28.22L125.035 32H122.995L126.835 26.86L123.215 22H125.275L127.855 25.48L130.435 22H132.475L128.875 26.84ZM141.885 23.72V22H143.625V32H141.885V30.28C141.032 31.6 139.772 32.26 138.105 32.26C136.692 32.26 135.498 31.7533 134.525 30.74C133.538 29.7133 133.045 28.4667 133.045 27C133.045 25.5467 133.538 24.3067 134.525 23.28C135.512 22.2533 136.705 21.74 138.105 21.74C139.772 21.74 141.032 22.4 141.885 23.72ZM138.325 30.58C139.338 30.58 140.185 30.24 140.865 29.56C141.545 28.8533 141.885 28 141.885 27C141.885 25.9867 141.545 25.14 140.865 24.46C140.185 23.7667 139.338 23.42 138.325 23.42C137.325 23.42 136.485 23.7667 135.805 24.46C135.125 25.14 134.785 25.9867 134.785 27C134.785 28 135.125 28.8533 135.805 29.56C136.485 30.24 137.325 30.58 138.325 30.58ZM153.181 26.16V22H154.921V32H153.181V27.82H148.001V32H146.261V22H148.001V26.16H153.181ZM162.27 32.26C160.763 32.26 159.51 31.76 158.51 30.76C157.51 29.7467 157.01 28.4933 157.01 27C157.01 25.5067 157.51 24.26 158.51 23.26C159.51 22.2467 160.763 21.74 162.27 21.74C163.257 21.74 164.143 21.98 164.93 22.46C165.717 22.9267 166.303 23.56 166.69 24.36L165.23 25.2C164.977 24.6667 164.583 24.24 164.05 23.92C163.53 23.6 162.937 23.44 162.27 23.44C161.27 23.44 160.43 23.78 159.75 24.46C159.083 25.1533 158.75 26 158.75 27C158.75 27.9867 159.083 28.8267 159.75 29.52C160.43 30.2 161.27 30.54 162.27 30.54C162.937 30.54 163.537 30.3867 164.07 30.08C164.603 29.76 165.01 29.3333 165.29 28.8L166.77 29.66C166.33 30.46 165.71 31.0933 164.91 31.56C164.11 32.0267 163.23 32.26 162.27 32.26ZM172.028 26.84L176.968 32H174.808L170.248 27.26V32H168.507V22H170.248V26.42L174.568 22H176.808L172.028 26.84ZM180.306 29.02L185.846 22H187.246V32H185.526V24.98L179.986 32H178.586V22H180.306V29.02ZM199.494 27.8H191.114C191.288 28.68 191.694 29.3733 192.334 29.88C192.974 30.3733 193.774 30.62 194.734 30.62C196.054 30.62 197.014 30.1333 197.614 29.16L199.094 30C198.108 31.5067 196.641 32.26 194.694 32.26C193.121 32.26 191.828 31.7667 190.814 30.78C189.828 29.7667 189.334 28.5067 189.334 27C189.334 25.48 189.821 24.2267 190.794 23.24C191.768 22.24 193.028 21.74 194.574 21.74C196.041 21.74 197.234 22.26 198.154 23.3C199.088 24.3133 199.554 25.5533 199.554 27.02C199.554 27.2733 199.534 27.5333 199.494 27.8ZM194.574 23.38C193.654 23.38 192.881 23.64 192.254 24.16C191.641 24.68 191.261 25.3867 191.114 26.28H197.794C197.648 25.36 197.281 24.6467 196.694 24.14C196.108 23.6333 195.401 23.38 194.574 23.38ZM209.034 26.7H201.734V25.02H209.034V26.7ZM216.387 32.26C214.907 32.26 213.687 31.7733 212.727 30.8C211.767 29.8133 211.287 28.56 211.287 27.04C211.287 25.32 211.534 24.0067 212.027 23.1C212.534 22.18 213.561 21.3467 215.107 20.6C215.187 20.56 215.281 20.5133 215.387 20.46C215.507 20.4067 215.647 20.3467 215.807 20.28C215.981 20.2 216.127 20.1333 216.247 20.08L217.327 19.6C218.394 19.0667 218.961 18.4267 219.027 17.68L220.427 18.48C220.334 18.9467 220.181 19.32 219.967 19.6C219.954 19.6267 219.914 19.6867 219.847 19.78C219.781 19.86 219.734 19.92 219.707 19.96C219.681 19.9867 219.634 20.0333 219.567 20.1C219.514 20.1533 219.454 20.2067 219.387 20.26C219.334 20.3133 219.261 20.3667 219.167 20.42C218.674 20.7267 218.321 20.9267 218.107 21.02C218.027 21.06 217.941 21.1 217.847 21.14C217.767 21.18 217.701 21.2133 217.647 21.24C217.594 21.2667 217.554 21.2867 217.527 21.3L216.867 21.58L216.227 21.84C215.334 22.2267 214.674 22.62 214.247 23.02C213.821 23.42 213.514 23.9267 213.327 24.54C213.741 24.0333 214.261 23.6467 214.887 23.38C215.527 23.1133 216.181 22.98 216.847 22.98C218.114 22.98 219.174 23.4067 220.027 24.26C220.907 25.1267 221.347 26.2267 221.347 27.56C221.347 28.92 220.881 30.0467 219.947 30.94C219.001 31.82 217.814 32.26 216.387 32.26ZM219.607 27.56C219.607 26.6667 219.314 25.94 218.727 25.38C218.154 24.8067 217.394 24.52 216.447 24.52C215.607 24.52 214.834 24.7933 214.127 25.34C213.447 25.8867 213.107 26.5933 213.107 27.46C213.107 28.3667 213.421 29.1133 214.047 29.7C214.674 30.2867 215.454 30.58 216.387 30.58C217.334 30.58 218.101 30.2933 218.687 29.72C219.301 29.1467 219.607 28.4267 219.607 27.56ZM231.475 23.72V22H233.215V32H231.475V30.28C230.622 31.6 229.362 32.26 227.695 32.26C226.282 32.26 225.088 31.7533 224.115 30.74C223.128 29.7133 222.635 28.4667 222.635 27C222.635 25.5467 223.128 24.3067 224.115 23.28C225.102 22.2533 226.295 21.74 227.695 21.74C229.362 21.74 230.622 22.4 231.475 23.72ZM227.915 30.58C228.928 30.58 229.775 30.24 230.455 29.56C231.135 28.8533 231.475 28 231.475 27C231.475 25.9867 231.135 25.14 230.455 24.46C229.775 23.7667 228.928 23.42 227.915 23.42C226.915 23.42 226.075 23.7667 225.395 24.46C224.715 25.14 224.375 25.9867 224.375 27C224.375 28 224.715 28.8533 225.395 29.56C226.075 30.24 226.915 30.58 227.915 30.58ZM241.251 26.88C242.358 27.3467 242.911 28.14 242.911 29.26C242.911 30.1267 242.571 30.8467 241.891 31.42C241.211 31.98 240.271 32.26 239.071 32.26C237.071 32.26 235.731 31.46 235.051 29.86L236.511 29C236.885 30.0933 237.745 30.64 239.091 30.64C239.745 30.64 240.258 30.5 240.631 30.22C241.005 29.94 241.191 29.5667 241.191 29.1C241.191 28.7 241.038 28.3733 240.731 28.12C240.438 27.8667 240.038 27.74 239.531 27.74H238.071V26.16H239.151C239.658 26.16 240.051 26.04 240.331 25.8C240.611 25.5467 240.751 25.2067 240.751 24.78C240.751 24.34 240.585 23.9933 240.251 23.74C239.918 23.4733 239.471 23.34 238.911 23.34C237.791 23.34 237.031 23.8133 236.631 24.76L235.211 23.94C235.918 22.4733 237.151 21.74 238.911 21.74C239.978 21.74 240.831 22.02 241.471 22.58C242.125 23.1267 242.451 23.8133 242.451 24.64C242.451 25.6533 242.051 26.4 241.251 26.88ZM246.537 25.6H249.017C250.017 25.6 250.843 25.9 251.497 26.5C252.163 27.0867 252.497 27.8533 252.497 28.8C252.497 29.7467 252.163 30.52 251.497 31.12C250.83 31.7067 250.003 32 249.017 32H244.797V22H246.537V25.6ZM253.797 32V22H255.537V32H253.797ZM246.537 30.38H249.017C249.523 30.38 249.943 30.2333 250.277 29.94C250.61 29.6467 250.777 29.2667 250.777 28.8C250.777 28.3333 250.603 27.9533 250.257 27.66C249.923 27.3533 249.51 27.2 249.017 27.2H246.537V30.38ZM259.295 32.22C258.935 32.22 258.628 32.0933 258.375 31.84C258.122 31.5867 257.995 31.28 257.995 30.92C257.995 30.56 258.122 30.2533 258.375 30C258.628 29.7467 258.935 29.62 259.295 29.62C259.668 29.62 259.975 29.7467 260.215 30C260.468 30.2533 260.595 30.56 260.595 30.92C260.595 31.28 260.468 31.5867 260.215 31.84C259.975 32.0933 259.668 32.22 259.295 32.22ZM268.578 21.74C269.978 21.74 271.172 22.2533 272.158 23.28C273.145 24.3067 273.638 25.5467 273.638 27C273.638 28.4667 273.145 29.7133 272.158 30.74C271.185 31.7533 269.992 32.26 268.578 32.26C266.925 32.26 265.665 31.6 264.798 30.28V36H263.058V22H264.798V23.72C265.665 22.4 266.925 21.74 268.578 21.74ZM268.358 30.58C269.358 30.58 270.198 30.24 270.878 29.56C271.558 28.8533 271.898 28 271.898 27C271.898 25.9867 271.558 25.14 270.878 24.46C270.198 23.7667 269.358 23.42 268.358 23.42C267.345 23.42 266.498 23.7667 265.818 24.46C265.138 25.14 264.798 25.9867 264.798 27C264.798 28 265.138 28.8533 265.818 29.56C266.498 30.24 267.345 30.58 268.358 30.58ZM282.015 32.2V36H280.295V32.2C278.735 32.0267 277.488 31.46 276.555 30.5C275.621 29.5533 275.155 28.3867 275.155 27C275.155 25.6133 275.621 24.4467 276.555 23.5C277.488 22.54 278.735 21.9733 280.295 21.8V18H282.015V21.8C283.575 21.9733 284.821 22.54 285.755 23.5C286.688 24.4467 287.155 25.6133 287.155 27C287.155 28.3867 286.688 29.5533 285.755 30.5C284.821 31.46 283.575 32.0267 282.015 32.2ZM276.875 27C276.875 27.9333 277.175 28.72 277.775 29.36C278.388 29.9867 279.228 30.3733 280.295 30.52V23.48C279.241 23.6133 278.408 24 277.795 24.64C277.181 25.2667 276.875 26.0533 276.875 27ZM282.015 23.48V30.52C283.068 30.3733 283.895 29.9867 284.495 29.36C285.108 28.72 285.415 27.9333 285.415 27C285.415 26.0667 285.108 25.2867 284.495 24.66C283.895 24.02 283.068 23.6267 282.015 23.48Z" fill="#EBEBEB"/>
<defs>
<clipPath id="clip0_2408_379">
<rect width="60" height="60" fill="white"/>
</clipPath>
</defs>
</svg>
