<svg width="60" height="60" viewBox="0 0 60 60" fill="none" xmlns="http://www.w3.org/2000/svg">
<path d="M58.9302 0.0256557C47.2922 2.3196 36.9989 7.0139 28.3361 13.9787C21.7275 19.2918 16.0799 25.9026 11.5398 33.6357C10.0609 33.2334 8.37281 33.9715 7.67238 35.3443C7.03676 36.5385 6.42082 37.7666 5.84168 38.9948C5.63426 39.4346 5.82269 39.9594 6.26262 40.1667C6.70242 40.374 7.2273 40.1857 7.43461 39.7458C8.00168 38.5432 8.60473 37.3407 9.22699 36.1717C9.63012 35.375 10.6936 35.0498 11.4729 35.486C12.2812 35.9166 12.5887 36.9248 12.1583 37.7337C6.6477 48.0875 5.07305 56.7755 5.05781 56.8619C4.90781 57.7594 4.02703 58.3757 3.13535 58.2109C2.23441 58.0529 1.62914 57.1914 1.78617 56.2903C1.82637 56.0593 2.80734 50.5452 6.01348 42.9319C6.20226 42.4836 5.99191 41.9674 5.54367 41.7786C5.09531 41.5898 4.57898 41.8003 4.39031 42.2484C1.10742 50.0441 0.0926943 55.7494 0.0510927 55.9882C-0.272462 57.8447 0.974647 59.6198 2.83078 59.9454C4.66781 60.2836 6.48398 59.0144 6.79219 57.1686C6.80414 57.1019 7.77938 51.787 10.8376 44.5891C11.6202 46.1429 13.2294 47.2117 15.0843 47.2117C15.5944 47.2117 16.0856 47.1299 16.5466 46.9805L17.3694 48.4897C17.2002 48.7622 17.1008 49.0823 17.1008 49.426C17.1008 50.4087 17.9002 51.2081 18.8828 51.2081C19.8653 51.2081 20.6647 50.4087 20.6647 49.426C20.6647 48.4543 19.8827 47.6631 18.9151 47.6456L18.092 46.1357C19.1564 45.2632 19.8369 43.9387 19.8369 42.4581C19.8369 39.8369 17.7049 37.7044 15.0843 37.7044C14.7111 37.7044 14.3482 37.7483 13.9997 37.83C14.3167 36.6346 13.9557 35.3552 13.0753 34.4988C17.5039 26.9627 23.0065 20.5234 29.4397 15.3511C36.8774 9.37148 45.5568 5.10925 55.2861 2.64948C53.382 4.12698 50.9047 6.14003 48.5235 8.34527C45.6679 10.99 43.499 13.397 42.0771 15.4997C40.175 18.3125 39.5732 20.6672 40.288 22.4982C41.571 25.7845 45.206 25.5016 48.1268 25.2746C50.8546 25.0624 52.547 25.0233 53.0448 26.2666C53.7073 27.9206 50.9027 31.2616 49.175 32.9058C47.2416 32.5555 39.7978 31.5787 33.6764 35.8687C33.2017 36.2014 32.7554 36.5721 32.3384 36.9751C30.7859 36.7441 28.7905 36.7069 27.2875 37.5846C26.3713 38.1196 25.8217 39.1963 25.7396 40.6162C25.6253 42.5974 26.4585 45.3061 28.5532 47.0808C28.7011 50.1995 29.8652 53.1441 31.8345 55.2369C32.1682 55.5916 32.7257 55.6076 33.0792 55.2749C33.4335 54.9417 33.4505 54.3845 33.1172 54.0302C31.0463 51.8292 30.0169 48.4975 30.3639 45.1178C30.6996 41.8466 32.2754 39.001 34.6872 37.3108C35.6326 36.6482 36.6209 36.1268 37.6177 35.7173C37.8602 39.2886 39.3676 42.0457 42.0359 43.8051C41.468 44.1305 40.884 44.4425 40.2909 44.7587C39.8959 44.9694 39.4874 45.1871 39.0882 45.4074C39.0555 45.4255 39.0233 45.4435 38.9902 45.4624C37.0662 46.5606 36.1848 48.725 36.797 50.8485C37.414 52.9885 39.326 54.3614 41.5587 54.2675C42.4015 54.2317 43.194 54.0674 43.9141 53.7792C44.1495 53.6851 44.334 53.4908 44.4185 53.2519C44.4582 53.1397 45.2726 50.9142 47.548 50.0214C47.2035 51.1427 46.9068 52.7088 47.2076 54.2894C47.4784 55.7119 48.688 57.1769 49.6015 58.1123C48.5094 58.373 46.7709 58.3592 45.0274 56.5793C44.7776 56.3242 44.3953 56.2465 44.0644 56.3807C44.044 56.3889 41.9924 57.2003 38.8112 56.8213C37.6902 56.6878 36.6427 56.3876 35.6977 55.9292C35.2602 55.7171 34.7332 55.8997 34.521 56.3372C34.3088 56.7746 34.4913 57.3014 34.9289 57.5137C36.0506 58.0578 37.2867 58.4132 38.6029 58.57C41.2754 58.8885 43.2559 58.4671 44.1727 58.1988C45.6728 59.5493 47.24 59.9965 48.595 59.9964C49.9098 59.9962 51.0247 59.5751 51.6834 59.1494C52.1741 58.8505 52.2212 58.0934 51.7718 57.7357C51.0713 57.1467 49.1967 55.3203 48.9377 53.9604C48.4997 51.6595 49.7404 49.2312 49.7522 49.2084C50.0837 48.6218 49.5662 47.8439 48.8974 47.9226C45.1015 48.2453 43.4238 51.1649 42.9229 52.2644C42.4777 52.4046 41.9951 52.4865 41.4836 52.5082C39.7484 52.5808 38.7881 51.3975 38.4893 50.3608C38.1941 49.337 38.3769 47.8404 39.8622 46.9926L39.9393 46.9494C40.3273 46.7353 40.7302 46.5205 41.1196 46.3128C43.4207 45.086 45.8002 43.8175 47.6016 41.4702C47.8976 41.0844 47.8249 40.5316 47.439 40.2356C47.0531 39.9396 46.5004 40.0123 46.2042 40.3982C45.4747 41.3487 44.6275 42.0991 43.7061 42.7512C40.9234 41.2562 39.4607 38.6917 39.3512 35.1151C43.2091 34.0003 46.9045 34.3452 48.4669 34.5784C48.3098 35.6573 48.0696 36.6483 47.75 37.5333C47.5849 37.9907 47.8218 38.4954 48.2793 38.6605C48.7368 38.8259 49.2415 38.5888 49.4066 38.1313C49.8206 36.9847 50.1131 35.6901 50.2806 34.2819C50.7502 33.8373 51.8045 32.7961 52.7859 31.5273C54.6496 29.1182 55.2866 27.1281 54.6796 25.6124C53.6646 23.0781 50.6498 23.3125 47.9899 23.5193C44.8163 23.7661 42.6802 23.7838 41.9284 21.8582C41.3929 20.4864 41.6914 17.076 49.7085 9.64839C54.3258 5.37058 59.3195 1.82284 59.6118 1.61624C59.6746 1.57148 59.7321 1.52308 59.782 1.4646C60.3457 0.862374 59.7282 -0.17661 58.9302 0.0256557ZM15.0843 39.4655C16.7337 39.4655 18.0756 40.808 18.0756 42.4581C18.0756 43.2694 17.7507 44.0058 17.225 44.5453L15.8575 42.0367C15.6246 41.6096 15.0899 41.4521 14.6627 41.6849C14.2357 41.9176 14.0782 42.4525 14.3109 42.8794L15.68 45.3908C15.4874 45.43 15.2882 45.4506 15.0843 45.4506C13.4348 45.4506 12.0929 44.1081 12.0929 42.458C12.0929 40.8078 13.4348 39.4655 15.0843 39.4655ZM28.6533 44.5789C27.7884 43.322 27.4336 41.8325 27.4979 40.7177C27.5435 39.9294 27.7968 39.3265 28.1757 39.1052C28.8309 38.7227 29.7857 38.5539 30.939 38.6042C29.7336 40.3003 28.9386 42.3511 28.6533 44.5789Z" fill="#DC3545"/>
<path d="M44.625 36.4977C44.3693 36.0841 43.8265 35.9559 43.4129 36.2118C42.9992 36.4675 42.8712 37.01 43.127 37.4237L43.4965 38.0212C43.7538 38.4384 44.3013 38.5607 44.7087 38.3072C45.1223 38.0515 45.2504 37.5089 44.9946 37.0952L44.625 36.4977Z" fill="#DC3545"/>
</svg>
